<svg id="Layer_1" xmlns="http://www.w3.org/2000/svg" viewBox="0 0 1440 590.1"><style>.st0{fill:#FFF}</style><path class="st0" d="M1050 799.3c-49.2-7.1-86.2-7-123.9.5-27.4 4.8-55.9 14.2-88.9 25.2-55 18.3-123.5 41-212.2 48.1-76.4 6.3-158.9-3.5-238.5-28.5-97.9-30.6-193-83.7-282.7-157.6-49.8-41-98-88.7-143.5-142-48.2-56.5-93.4-119.3-134.3-186.8-88-144.8-159-315.8-205.4-494.4l-1 .3C-334 42.8-262.9 213.8-174.8 358.7c40.9 67.5 86.1 130.4 134.4 187C5.1 599 53.4 646.8 103.2 687.8c89.8 74 185.1 127.1 283 157.8 64.1 20.1 130 30.4 193.2 30.4 15.4 0 30.7-.6 45.8-1.9C714 867 782.6 844.3 837.6 826c33-10.9 61.4-20.4 88.7-25.2 37.5-7.4 74.5-7.5 123.5-.5 15.5 2.1 32.3 4.9 50.1 7.8 38.9 6.5 83 13.8 138.7 18.4l.1-1c-55.7-4.5-99.8-11.9-138.6-18.4-17.8-2.9-34.6-5.7-50.1-7.8z"/><path class="st0" d="M1086.2 750.6c-51.9-4.8-91.4-3-131.9 6.3-29 6-58.5 16.4-92.7 28.5-59.5 21-127 44.9-216 53.8-77.2 8-156.9 0-236.8-23.8-96.3-28.7-189.7-79.8-277.5-151.8-48.5-39.7-95.6-86.3-139.9-138.3-46.9-55.1-90.7-116.6-130.3-182.8-85.1-141.6-153.3-309-197.4-484.1l-1 .2C-293.2 33.9-224.9 201.4-139.8 343c39.6 66.2 83.5 127.7 130.4 182.9 44.3 52.1 91.4 98.7 140 138.6 87.9 72.2 181.4 123.3 277.9 152 60 17.9 119.8 26.8 178.5 26.8 19.7 0 39.2-1 58.7-3 89.1-9 156.6-32.8 216.2-53.9 34.2-12.1 63.7-22.5 92.6-28.5 40.4-9.2 79.7-11.1 131.6-6.2 17.8 1.5 37.2 3.8 57.8 6.2 39.6 4.7 84.4 10 139.8 12.5v-1c-55.3-2.5-100.2-7.8-139.7-12.5-20.5-2.5-40-4.8-57.8-6.3z"/><path class="st0" d="M1120.2 703.5c-54-2.7-97 .9-139.6 11.7-30.6 7.2-62.8 19.2-97 31.9-61 22.7-130.1 48.4-219.2 59.2-76.9 9.6-156 3.1-235.1-19.3-94.8-26.8-186.5-76-272.5-146.3-47.4-38.7-93.4-84.1-136.4-135-45.6-53.9-88.1-114-126.5-178.8-82.2-138.5-147.8-302.5-189.6-474.3l-1 .2C-254.9 24.7-189.3 188.9-107 327.4c38.4 64.9 81 125.1 126.6 179 43.1 51 89.1 96.5 136.6 135.2 86.1 70.3 177.9 119.6 272.8 146.5 55.5 15.7 111.1 23.6 165.9 23.6 23.3 0 46.6-1.4 69.6-4.3C753.8 796.5 823 770.7 884 748c34.1-12.7 66.3-24.7 96.8-31.8 42.5-10.8 85.5-14.4 139.4-11.7 20 .8 41.9 2.5 65.1 4.3 40.2 3.1 85.8 6.6 140.9 7.4v-1c-55.1-.7-100.6-4.3-140.8-7.4-23.3-1.8-45.2-3.5-65.2-4.3z"/><path class="st0" d="M1224.1 660.1c-25.7-1.1-49.9-2.1-72-2.2-56.6-.8-102 4.4-147.2 16.9-32.4 8.3-66 21.4-101.5 35.2-62.3 24.2-132.9 51.6-221.8 64-76.7 11-155.3 6-233.4-15-93.4-25.1-183.4-72.5-267.6-141-46.3-37.6-91.1-82-133.1-131.8C3.2 433.5-38.1 374.6-75.3 311.1c-79.5-135.5-142.4-296.3-182-465l-1 .2C-218.6 15.1-155.7 176-76.1 311.6c37.2 63.6 78.5 122.6 122.9 175.2 42 49.9 86.8 94.3 133.2 131.9 84.3 68.6 174.4 116.1 268 141.2 51.4 13.8 102.9 20.7 154 20.7 26.8 0 53.4-1.9 79.8-5.7 89-12.4 159.7-39.9 222-64.1 35.5-13.8 69.1-26.8 101.4-35.1 45.1-12.4 90.4-17.6 146.9-16.8 22.1.1 46.3 1.1 71.9 2.2 40.9 1.7 87.2 3.7 142.2 2.9v-1c-55 .8-101.3-1.2-142.1-2.9z"/><path class="st0" d="M1260.2 613.8c-27.9-.3-54.3-.6-78.3 0-59.2 1-106.9 7.7-154.5 21.7-34.2 9.5-69.3 23.6-106.5 38.5-63.5 25.5-135.4 54.4-223.9 68.4-76.5 12.4-154.5 8.7-231.8-10.9-92-23.4-180.4-69.1-262.8-136-45.2-36.6-88.9-79.9-129.8-128.7-43-51.5-83.1-109.2-119.1-171.6-76.8-132.7-137.2-290.4-174.7-456l-1 .2c37.5 165.8 98 323.5 174.8 456.3 36 62.4 76.1 120.2 119.2 171.7 40.9 48.9 84.6 92.2 129.9 128.9C284.3 663.2 372.9 709 465 732.4c47.5 12.1 95.3 18.1 142.8 18.1 29.9 0 59.8-2.4 89.4-7.2 88.6-14 160.6-42.9 224.1-68.5 37.1-14.9 72.2-29 106.4-38.5 47.5-13.9 95.1-20.6 154.2-21.6 24-.6 50.4-.3 78.3 0 41.5.5 88.6 1.1 143.7-1.1v-1c-55.1 2.3-102.2 1.7-143.7 1.2z"/><path class="st0" d="M1293.9 569c-30 .4-58.4.8-84.2 2.2-61.8 2.7-111.6 10.8-161.6 26.1-36.2 10.6-72.9 25.7-111.7 41.8-64.4 26.7-137.5 57-225.4 72.3-76.4 13.7-153.8 11.3-230.2-7.1-90.6-21.8-177.5-65.9-258.2-131.2-44.2-35.6-86.8-78-126.6-125.8-42-50.2-80.8-106.8-115.7-168-74.2-130-132.2-284.8-167.6-447.5l-1 .2C-152.8-5.2-94.8 149.7-20.5 279.8 14.3 341.1 53.2 397.7 95.2 448c39.9 47.9 82.5 90.3 126.8 125.9 80.8 65.3 167.8 109.5 258.5 131.4 43.9 10.6 88.1 15.9 132.3 15.9 32.9 0 65.7-2.9 98.3-8.8 88.1-15.4 161.2-45.7 225.7-72.4 38.8-16.1 75.4-31.2 111.6-41.8 49.8-15.3 99.6-23.4 161.3-26.1 25.8-1.3 54.1-1.7 84.2-2.2 42.3-.6 90.2-1.3 145.4-4.6l-.1-1c-55.2 3.5-103.1 4.2-145.3 4.7z"/><path class="st0" d="M1325.1 525.9c-31.9 1.1-62.1 2.2-89.6 4.3-63.5 4.2-117 13.8-168.5 30.2-38.3 11.6-76.6 27.9-117.3 45.1-65.3 27.7-139.3 59.1-226.5 75.7C647 696.1 570 695 494.5 677.8c-89.2-20.4-174.5-63-253.5-126.7-43.2-34.7-84.7-76.1-123.5-123C76.7 378.8 39 323.4 5.3 263.2-66.4 135.8-122-16.2-155.5-176.3l-1 .2C-123-15.9-67.4 136.2 4.4 263.7c33.7 60.2 71.5 115.7 112.3 165.1 38.8 47 80.4 88.4 123.7 123.2 79.1 63.8 164.6 106.5 254 126.8 40.5 9.2 81.5 13.8 122.5 13.8 35.5 0 71.2-3.5 106.6-10.4 87.3-16.7 161.4-48.1 226.7-75.8 40.6-17.2 79-33.5 117.2-45.1 51.4-16.4 104.8-26 168.2-30.2 27.5-2 57.6-3.1 89.5-4.3 43-1.5 91.8-3.3 147.4-7.8l-.1-1c-55.6 4.6-104.3 6.3-147.3 7.9z"/><path class="st0" d="M1353.9 484.3c-33.6 1.8-65.4 3.6-94.4 6.3-66 5.6-121.6 16.4-175.2 34-40.4 12.7-80.6 30.1-123.1 48.5-69.2 29.9-140.7 60.8-227.1 78.6-76.1 16-152.5 16-227.2 0-88-18.9-171.9-60.1-249.2-122.4C171.3 459.8 92 362.2 28.5 247-40.8 121.9-94.1-27.4-125.6-184.9l-1 .2c31.5 157.6 84.9 307 154.2 432.2 63.7 115.4 143 213.1 229.6 282.6 77.4 62.4 161.4 103.6 249.6 122.6 37.4 8 75.3 12.1 113.3 12.1s76.2-4 114.3-12c86.5-17.8 158.1-48.7 227.3-78.7 42.5-18.4 82.7-35.7 123-48.4 53.5-17.6 109.1-28.3 175-33.9 29-2.7 60.7-4.4 94.4-6.3 43.8-2.4 93.5-5.1 149.8-10.5l-.1-1c-56.4 5.2-106 7.9-149.9 10.3z"/><path class="st0" d="M1380.5 444.4c-35.2 2.5-68.4 4.8-98.7 8.1-68.4 6.9-126.2 18.7-181.7 37.4-42.7 13.7-84.7 32.2-129.3 51.8-69.7 30.6-141.8 62.3-227.2 81-76 17.1-151.9 18.1-225.7 3.1C431 608.2 348.7 568.4 273 507.5c-84.4-67.7-161.5-163.5-223.1-277C-17 107.7-68-39.1-97.6-194.2l-1 .2C-69-38.9-17.9 108.1 49 231c61.6 113.6 138.9 209.5 223.3 277.2 75.8 61 158.3 100.9 245.3 118.6 34.5 7 69.6 10.5 104.8 10.5 40.2 0 80.8-4.6 121.3-13.7 85.5-18.8 157.7-50.4 227.4-81.1 44.5-19.5 86.5-38 129.2-51.7 55.5-18.6 113.1-30.5 181.5-37.3 30.4-3.3 63.6-5.6 98.7-8.1 44.7-3.2 95.4-6.7 152.3-13l-.1-1c-56.7 6.3-107.4 9.9-152.2 13z"/><path class="st0" d="M1405 406.3c-36.5 3.1-71 5.9-102.7 9.7-70.9 8-130.6 20.8-188.1 40.4-45 14.8-89.1 34.3-135.7 55-70.1 31.2-142.6 63.4-226.9 82.9-116.3 27.7-291.3 31.3-464.8-108.5-82.4-66.1-157.4-160.1-217-272C5.2 93.2-43.6-51.4-71.4-204.2l-1 .2C-44.6-51.1 4.2 93.6 68.9 214.3c59.6 112 134.8 206.1 217.3 272.3 118.2 95.2 237.1 124 337.7 124 47.4 0 90.7-6.4 128-15.3 84.4-19.6 157-51.8 227.1-83 46.6-20.7 90.6-40.3 135.6-55 57.4-19.6 117.1-32.4 187.9-40.4 31.6-3.8 66.1-6.7 102.6-9.7 45.7-3.8 97.5-8.2 155.2-15.2l-.1-1c-57.7 7.1-109.5 11.4-155.2 15.3z"/><path class="st0" d="M1427.5 369.8c-37.8 3.6-73.4 6.9-106.2 11.2-73.3 9-135 22.7-194.3 43.1-47.5 15.7-93.6 36.4-142.4 58.3-70.3 31.5-143.1 64.1-226.2 84.4-115.8 28.9-289.5 34.6-459.2-102.4-80.5-64.6-153.4-157-211-267.3C25.7 78.3-20.9-64.1-46.9-214.8l-1 .2c26 150.8 72.7 293.3 135 412.1 57.7 110.4 130.7 203 211.3 267.7C411.7 556.4 526.6 584.5 625 584.5c49.5 0 94.8-7.1 133.6-16.8 83.3-20.3 156-52.9 226.4-84.4 48.8-21.9 94.9-42.5 142.3-58.2 59.2-20.4 120.9-34.1 194.1-43.1 32.8-4.2 68.4-7.6 106.2-11.2 46.7-4.4 99.6-9.4 158.3-17.1l-.1-1c-58.7 7.7-111.6 12.7-158.3 17.1z"/><path class="st0" d="M1448.1 335c-38.9 4-75.5 7.8-109.4 12.4-75.6 9.9-139.3 24.3-200.4 45.4-50.1 16.7-98.3 38.4-149.4 61.4-70.4 31.7-143.2 64.5-225.1 85.4-75.7 19.7-150.2 23.5-221.4 11.2-83.3-14.3-161.5-50.7-232.3-108-78.6-63.2-149.5-154.2-205.2-263.1C44.8 62.9.2-77.5-23.9-226.2l-1 .2C-.7-77.2 43.8 63.3 104 180.3c55.7 109 126.8 200.1 205.4 263.4 71 57.5 149.3 93.9 232.8 108.2 27.3 4.7 55 7 83.2 7 45.4 0 91.8-6.1 138.6-18.3 82-20.8 154.8-53.7 225.3-85.4 51-23 99.3-44.7 149.3-61.4 61-21.1 124.7-35.5 200.2-45.4 33.8-4.6 70.5-8.4 109.4-12.4 47.8-4.9 101.9-10.5 161.5-18.8l-.1-1c-59.6 8.4-113.8 13.9-161.5 18.8z"/><path class="st0" d="M1467 302c-39.8 4.3-77.5 8.4-112.3 13.4-78 10.6-143.6 25.7-206.4 47.4-52.8 17.6-103.2 40.4-156.6 64.5-70.3 31.8-143.1 64.7-223.6 85.9-75.7 20.4-149.7 24.9-220 13.4-82.2-13.4-159-48.8-228.3-105.1-76.7-62-145.6-151.6-199.4-259.1C62.4 47.2 19.9-91.4-2.5-238.4l-1 .2c22.5 147 65 285.7 122.9 401 53.8 107.7 122.9 197.4 199.7 259.5 69.5 56.5 146.4 91.9 228.8 105.3 25.3 4.1 51.1 6.2 77.2 6.2 46.7 0 94.6-6.6 143.2-19.7 80.6-21.2 153.4-54.1 223.8-85.9 53.4-24.1 103.8-46.9 156.5-64.5 62.8-21.7 128.3-36.7 206.2-47.3 34.8-5 72.4-9.1 112.2-13.4 48.9-5.3 104.2-11.4 164.9-20.2l-.1-1c-60.6 8.8-116 14.9-164.8 20.2z"/><path class="st0" d="M1484.2 270.7c-40.7 4.6-79.2 9-114.9 14.2-80.3 11.2-147.8 26.8-212.2 49-55.5 18.4-108.3 42.3-164.1 67.5-70.1 31.7-142.6 64.5-221.8 86-75.6 21-149.2 26.2-218.6 15.4-81.1-12.6-156.6-47.1-224.4-102.5-74.9-60.9-141.9-149.3-193.7-255.7C78.7 30.9 38.3-106 17.6-251.3l-1 .1c20.7 145.5 61.1 282.5 117 396.3 51.9 106.5 119 195 194 255.9 67.9 55.5 143.6 90.1 224.8 102.7 23.5 3.7 47.5 5.5 71.9 5.5 47.7 0 97-7 147.1-20.9 79.2-21.5 151.7-54.3 221.9-86 55.8-25.2 108.5-49.1 164-67.5 64.4-22.2 131.8-37.7 212.1-48.9 35.7-5.2 74.1-9.6 114.9-14.2 50-5.7 106.7-12.1 168.5-21.3l-.1-1c-61.9 9.2-118.5 15.6-168.5 21.3z"/><path class="st0" d="M1500 241c-41.6 4.8-80.8 9.4-117.3 14.8-82.6 11.7-151.9 27.7-218 50.2-58.4 19.2-116.1 45.2-171.8 70.4-69.8 31.5-141.9 64-219.6 85.6-75.6 21.5-148.7 27.3-217.3 17.1-80-11.9-154.2-45.6-220.5-100.2-73.1-59.9-138.1-147.1-188.1-252.4C93.7 14.2 55.4-121.2 36.5-265l-1 .1C54.4-121 92.8 14.6 146.5 127c50.1 105.4 115.2 192.8 188.4 252.7 66.4 54.7 140.8 88.5 221 100.4 22 3.3 44.4 4.9 67.2 4.9 48.6 0 99-7.4 150.5-22 77.7-21.7 149.9-54.2 219.7-85.7 58.3-26.3 113.3-51.1 171.7-70.3 66-22.5 135.2-38.5 217.8-50.2 36.5-5.4 75.7-9.9 117.3-14.8 51.2-5.9 109.1-12.7 172.2-22.2l-.2-1c-63 9.6-121 16.3-172.1 22.2z"/><path class="st0" d="M1514.4 213.1c-42.3 4.9-82.3 9.6-119.6 15.1-84.9 12-156 28.3-223.7 51.1-61.4 20-121.5 47-179.7 73.1-69.3 31.1-140.9 63.3-217.1 84.9-75.6 22-148.2 28.2-215.9 18.6-79-11.2-151.8-44.2-216.6-98.1-71.3-59-134.5-145.3-182.6-249.6C107.6-3 71.3-137.1 54.1-279.6l-1 .1c17.2 142.6 53.6 276.8 105.2 388 48.2 104.5 111.5 190.9 182.9 250 64.9 54 138 87.1 217.1 98.3 20.6 2.9 41.7 4.4 63.1 4.4 49.2 0 100.5-7.7 153.2-23 76.2-21.7 147.9-53.8 217.2-85 58.2-26.1 118.3-53.1 179.6-73 67.6-22.8 138.6-39 223.5-51 37.2-5.5 77.2-10.2 119.5-15.1 52.3-6.1 111.7-13 175.9-22.8l-.2-1c-64.1 9.7-123.4 16.6-175.7 22.8z"/><path class="st0" d="M1527.6 186.8c-43.1 5-83.7 9.7-121.7 15.3-87.2 12.2-160 28.6-229.2 51.6-64.5 20.6-127.2 48.6-187.8 75.6-68.7 30.6-139.7 62.3-214.2 83.8-75.5 22.3-147.7 29-214.6 19.8-77.9-10.7-149.5-43.1-212.8-96.4-69.7-58.2-131-143.7-177.3-247.1-49.5-110.1-83.9-243-99.3-384.4l-1 .1c15.4 141.5 49.8 274.5 99.4 384.7 46.4 103.6 107.7 189.1 177.4 247.4 63.4 53.4 135.2 85.9 213.3 96.6 19.5 2.7 39.3 4 59.6 4 49.6 0 101.7-8 155.4-23.8 74.6-21.6 145.7-53.2 214.4-83.9 60.6-27 123.3-55 187.7-75.6 69.1-22.9 141.9-39.3 229.1-51.5 38-5.5 78.6-10.3 121.7-15.3 53.5-6.2 114.2-13.3 179.7-23.1l-.1-1c-65.5 9.9-126.2 17-179.7 23.2z"/><path class="st0" d="M1539.7 162.1c-43.8 5-85.1 9.7-123.8 15.2-89.5 12.3-164.1 28.7-234.7 51.7-67.6 21.2-132.9 50-196.1 77.9-68 30-138.3 61-211.2 82.4-164.8 49.3-306.9 24.3-422.3-74.2-67.9-57.5-127.2-142.2-171.7-245C132.4-39 100-170.9 86.3-311.3l-1 .1c13.7 140.6 46 272.6 93.6 381.8 44.5 102.9 104 187.7 172 245.3 61.9 52.8 132.4 84.9 209.5 95.1 18.5 2.5 37.4 3.7 56.7 3.7 49.9 0 102.4-8.2 156.9-24.5 73-21.4 143.3-52.4 211.3-82.4 63.2-27.9 128.5-56.7 196-77.9 70.6-23 145.2-39.4 234.6-51.6 38.7-5.5 80-10.2 123.8-15.2 54.7-6.2 116.8-13.3 183.5-23.2l-.1-1c-66.7 9.9-128.7 17-183.4 23.2z"/><path class="st0" d="M1550.8 139.1c-44.4 4.9-86.4 9.5-125.8 15-91.7 12.2-168 28.5-240.2 51.4-70.9 21.7-138.8 51.3-204.6 80-67.2 29.3-136.6 59.6-207.9 80.6-164.4 49.5-304.8 25.2-417.2-72.3-66.2-57-123.7-141.1-166.3-243.2-45.5-108.4-75.9-239.4-87.8-379l-1 .1C111.9-188.6 142.3-57.5 187.9 51c42.7 102.3 100.3 186.5 166.6 243.6 74.9 64.9 162.1 97.5 260.5 97.5 49.7 0 102.3-8.3 157.6-25 71.3-21.1 140.8-51.4 208-80.7 65.7-28.7 133.7-58.3 204.5-80 72.1-22.9 148.4-39.2 240-51.4 39.4-5.5 81.3-10.1 125.8-15 55.9-6.2 119.3-13.1 187.3-23l-.1-1c-68 10-131.4 17-187.3 23.1z"/><path class="st0" d="M1561 117.7c-45.1 4.7-87.8 9.2-127.9 14.5-94 11.9-172 28.1-245.6 50.8-74.2 22.1-144.9 52.5-213.2 81.8-66.3 28.5-134.8 58-204.4 78.6-75.5 22.8-146.4 30.2-210.6 21.9-74.9-9.7-142.7-40.9-201.5-92.9C293.4 216 237.7 132.3 196.9 30.6c-43.5-107.8-71.9-238.2-82-377.1l-1 .1C124.1-207.3 152.5-76.9 196 31c40.8 101.8 96.6 185.6 161.2 242.3 59 52.1 127 83.4 202.1 93.1 17.1 2.2 34.6 3.3 52.6 3.3 49.8 0 102.8-8.4 158.4-25.2 69.6-20.6 138.2-50.1 204.5-78.6 68.3-29.4 139-59.8 213.1-81.8 73.6-22.7 151.5-38.8 245.4-50.8 40.1-5.3 82.7-9.8 127.8-14.5 59.9-6.3 121.8-12.8 191.1-22.4l-.1-1c-69.2 9.5-131.2 16-191.1 22.3z"/><path class="st0" d="M1570.6 97.9c-45.8 4.5-89.1 8.8-129.9 13.9-94.9 11.4-177 27.7-251 49.8-77.6 22.3-151 53.4-221.9 83.4-68.3 28.9-132.8 56.2-200.7 76.3-75.5 22.8-146 30.3-209.3 22.1-73.9-9.5-140.5-40.6-197.8-92.3-62.8-56.2-116.6-139.5-155.6-240.9-41.5-107.3-67.9-237.2-76.3-375.6l-1 .1c8.4 138.5 34.8 268.5 76.3 375.9 19.9 51.7 43.5 98.7 70.2 139.7 25.8 39.7 54.6 73.8 85.6 101.5 57.5 51.8 124.2 83 198.4 92.5 16.7 2.2 33.8 3.2 51.4 3.2 49.5 0 102.5-8.5 158.3-25.3 67.9-20.1 132.4-47.4 200.8-76.3 70.9-30 144.3-61 221.8-83.3 74-22.1 156-38.4 250.8-49.8 40.8-5.1 84.1-9.4 129.9-13.9 61.1-6 124.3-12.2 194.8-21.6l-.1-1c-70.4 9.4-133.6 15.6-194.7 21.6z"/><path class="st0" d="M1579.5 79.7c-46.6 4.2-90.6 8.2-132.1 13.1-97 10.9-180.9 26.7-256.3 48.4-81 22.4-157.2 54-230.8 84.6-67.2 27.9-130.7 54.2-196.8 73.8-75.6 22.7-145.5 30.2-208 22-72.9-9.5-138.2-40.4-194.1-92-30.1-27.6-58-61.6-82.9-101.1-25.8-40.8-48.4-87.7-67.3-139.2-39.5-107-63.9-236.6-70.4-374.7h-1c6.6 138.2 30.9 267.9 70.5 375 18.9 51.6 41.6 98.5 67.4 139.4 25 39.6 52.9 73.6 83.1 101.3 56 51.7 121.5 82.7 194.7 92.3 16.4 2.1 33.3 3.2 50.7 3.2 49 0 101.8-8.4 157.7-25.3 66.2-19.6 129.7-45.9 196.9-73.8 73.6-30.5 149.7-62.1 230.7-84.5 75.4-21.7 159.2-37.5 256.1-48.4 41.5-4.9 85.5-8.9 132.1-13.1 62.3-5.7 126.8-11.5 198.4-20.5l-.1-1c-71.8 9-136.2 14.8-198.5 20.5z"/><path class="st0" d="M1587.9 63c-47.4 3.9-92.1 7.5-134.4 12.1-99.2 10.2-184.8 25.5-261.6 46.7-84.6 22.4-163.4 54.5-239.7 85.4-66 26.8-128.4 52.2-192.9 71.1-75.6 22.6-145.1 29.9-206.7 21.7-71.9-9.5-136-40.5-190.4-92-29.3-27.5-56.3-61.5-80.3-101-24.8-40.8-46.5-87.6-64.5-139C180-138.8 157.7-268.2 153-406.2h-1c4.7 138 27.1 267.5 64.6 374.5 18 51.5 39.7 98.4 64.6 139.2 24.1 39.5 51.2 73.6 80.5 101.2 54.6 51.7 118.8 82.7 191 92.3 16.3 2.2 33.2 3.2 50.6 3.2 48.4 0 100.8-8.4 156.5-25 64.5-18.9 126.9-44.3 193-71.1 76.2-31 155-63 239.6-85.4 76.8-21.2 162.3-36.5 261.5-46.7 42.3-4.6 87-8.2 134.4-12.1 63.5-5.2 129.1-10.6 202-19l-.1-1c-73.1 8.5-138.8 13.9-202.3 19.1z"/><path class="st0" d="M1596 47.9c-48.2 3.5-93.7 6.8-136.8 11-101.4 9.4-188.7 24-266.9 44.6-88.2 22.3-169.7 54.6-248.6 85.9-64.8 25.7-126.1 50-188.8 68.2-76.7 22.5-143.9 29.4-205.4 21-71-9.7-133.8-40.7-186.7-92.3-28.5-27.6-54.7-61.6-77.8-101-24-40.8-44.7-87.6-61.7-139.1C187.8-160.6 167.5-290 164.7-428h-1c2.8 138 23.1 267.5 58.7 374.5 17 51.6 37.8 98.4 61.7 139.3 23.2 39.5 49.4 73.6 78 101.2 53.1 51.7 116.1 82.9 187.3 92.6 16.9 2.3 34.1 3.5 51.9 3.5 47.3 0 98-8.2 153.8-24.6 62.8-18.2 124.1-42.5 188.9-68.2 78.9-31.3 160.4-63.6 248.5-85.9 78.2-20.6 165.4-35.2 266.8-44.6 43.1-4.2 88.6-7.5 136.8-11 64.6-4.7 131.4-9.5 205.4-17.3l-.1-1c-74 7.9-140.8 12.7-205.4 17.4z"/><path class="st0" d="M1983.8 49.3c-69.2-11.8-134.8-24.1-198.3-36.1 7.4-.5 14.8-1.1 22.4-1.7 52 8.7 105.5 17.5 161.5 25.8l.1-1c-54.5-8.2-106.8-16.7-157.5-25.2 3.7-.3 7.4-.6 11.2-.9l-.1-1c-5.1.4-10.1.8-15.1 1.2-9.6-1.6-19.1-3.2-28.6-4.8 7.4-.4 14.9-.8 22.4-1.3 49.6 7.3 100.7 14.6 154 21.5l.1-1c-51.6-6.7-101.2-13.7-149.3-20.8 7.6-.5 15.4-1 23.1-1.5 36.7 4.6 74.2 9 113 13.2l.1-1c-37.5-4.1-73.8-8.4-109.3-12.8v-.7c-1.3.1-2.5.2-3.8.3-9.1-1.1-18.2-2.3-27.2-3.4 7.5-.3 15.1-.7 22.7-1.1 34.1 3.5 69.1 7 105.1 10.2l.1-1c-33.8-3-66.6-6.2-98.7-9.5 4-.2 8-.4 12.1-.6l-.1-1c-6.2.3-12.4.7-18.6 1-8.4-.9-16.8-1.8-25.1-2.6 7.2-.2 14.4-.4 21.7-.6 31.4 2.6 63.6 5.1 96.7 7.4l.1-1c-30.1-2.1-59.4-4.3-88.1-6.7 7.1-.2 14.3-.5 21.6-.8 18 1.1 36.4 2.1 55 3v-1c-17.9-.9-35.6-1.8-53-2.9v-.2c-.7 0-1.4 0-2 .1l-19.8-1.2 17.8-.3c15.1.6 30.4 1.1 45.9 1.6v-1c-10.6-.3-21.2-.7-31.6-1.1v-.5l20.9.3v-1c-3.5 0-7-.1-10.5-.1v-.5c-8.6 0-17.1.1-25.5.1-21.3-.4-42.1-.9-62.6-1.6-20.2-1-40.2-2-59.8-3.1-16.6-1.2-33.1-2.5-49.4-3.7l-7.5-.6c-18.2-1.7-36.1-3.3-53.7-4.9-17-1.8-33.8-3.6-50.4-5.3-15.6-1.8-30.9-3.6-46.1-5.2-14.2-1.8-28.2-3.5-42-5.1-13-1.7-25.7-3.4-38.3-4.9-96.5-13.5-182.5-20.9-260.9-22.6-143.4-4.6-266 12.2-374.1 27-50.4 6.9-98 13.4-142.5 17-77.3 6.3-135.2-.4-182.2-21.2-55.1-24.4-95.5-68.7-123.5-135.4-30.4-72.3-45.4-170.1-44.5-290.8.8-126.9 19.4-278.6 53.9-438.8l-1-.2c-34.5 160.3-53.2 312.1-53.9 439-.8 120.8 14.2 218.8 44.6 291.2 28.1 67 68.7 111.4 124 135.9C526.5-25.3 584.6-18.5 662-24.9c44.5-3.6 92.1-10.1 142.6-17 108.1-14.8 230.6-31.6 373.9-27 63 1.4 130.9 6.5 205.2 15.4-74.6-7.6-142.5-11.4-205.5-11.4-140.7-1.6-261.7 17.6-368.4 34.5-50.5 8-98.2 15.5-142.9 20.1C589.4-2.4 531-7.8 483-27.3 426.7-50.1 384.9-92.9 355.1-158c-32.3-70.5-49.6-166.4-51.2-285.1-1.9-124.6 13.9-273.7 45.5-431.3l-1-.2C316.7-716.9 301-567.7 302.9-443c1.7 118.8 18.9 214.8 51.3 285.5 29.9 65.3 71.9 108.3 128.4 131.2 48.2 19.6 106.8 25 184.3 16.9 44.8-4.5 92.5-12.1 143-20.1 106.7-16.9 227.7-36.1 368.3-34.5 73.4.1 153.7 5.2 243.3 15.6-89.7-8.7-169.9-12.3-243.2-10.9-137.8 1.3-257.1 22.6-362.4 41.5C765.2-8.7 717.3-.2 672 5.3c-77.5 9.6-136.4 5.5-185.4-12.7C429.2-28.8 386-70.1 354.5-133.7c-34.3-68.9-53.7-163-57.8-279.6-4.4-122.4 8.5-269.1 37.3-424.3l-1-.2c-28.9 155.3-41.8 302-37.3 424.5 4.1 116.8 23.6 211 57.9 280C385.2-69.4 428.6-28 486.3-6.5c49.2 18.3 108.2 22.4 185.9 12.8C717.4.8 765.3-7.8 816-16.8c105.3-18.8 224.6-40.2 362.2-41.5 83.2-1.6 175.3 3.2 280 14.7.5.1 1 .1 1.5.2-105.5-9.8-197.9-12.9-281.2-9.6-134.6 4-252.2 27.4-355.9 48-51.1 10.2-99.4 19.8-145.2 26.2-77.6 11.1-137 8.3-187-8.8-58.5-20-103.1-60-136.3-122.1-36.1-67.3-57.8-159.7-64.3-274.5-7-120.4 3.2-264.8 29.4-417.7l-1-.2c-26 153.1-36.2 297.6-29.2 418 6.5 115 28.2 207.5 64.4 275 33.3 62.3 78 102.4 136.8 122.5 30.3 10.4 63.9 15.5 103 15.5 25.7 0 53.6-2.2 84.5-6.6C723.6 15.9 771.8 6.2 823-3.9c103.7-20.7 221.2-44.1 355.7-48 88.2-3.5 186.6.2 299.9 11.4 2.5.4 5 .8 7.6 1.2-116.5-9.7-217.1-11.9-306.8-6.5C1048-39.3 932.3-14 830.3 8.3c-51.7 11.3-100.4 22-147 29.3-77.6 12.5-137.5 10.9-188.5-5.1-59.7-18.8-105.6-57.4-140.5-118.2-38-65.9-61.7-156.7-70.6-269.8-9.4-118.5-1.9-260.8 21.6-411.5l-1-.2c-23.5 150.9-31 293.2-21.6 411.8 8.8 113.3 32.6 204.2 70.7 270.2 35 61 81.2 99.8 141 118.6 28.6 9 60 13.5 95.7 13.5 28.1 0 59-2.8 93.3-8.3 46.6-7.4 95.4-18.1 147.1-29.4 102-22.3 217.5-47.6 348.9-54.1 93.4-5.6 198.5-3.1 321 7.7 3.8.6 7.7 1.2 11.5 1.8-1.6-.1-3.1-.2-4.7-.3-125.3-9.2-232.3-9.9-326.9-2.4-128.1 8.9-241.7 35.8-341.9 59.6C786 34 736.6 45.8 689.2 54.1c-76.6 13.7-138.8 13.2-190-1.6C438.5 35 391.2-2.5 354.6-62c-39.8-64.6-65.7-153.8-76.8-265.4-11.8-116.7-6.9-257 14-405.8l-1-.1c-21 148.9-25.9 289.3-14.1 406.1 11.1 111.7 37 201.1 76.9 265.8C390.5-1.8 438 35.8 498.9 53.4c26.7 7.7 56.3 11.5 89.3 11.5 30.6 0 64.2-3.3 101.1-9.9 47.4-8.3 96.9-20.1 149.2-32.5 100.2-23.8 213.7-50.8 341.7-59.6 94.6-7.5 201.5-6.8 326.8 2.4 5.2.4 10.5.7 15.8 1.1 4.1.7 8.3 1.4 12.4 2.1.6.1 1.3.2 1.9.3-11.7-.7-23.2-1.4-34.6-1.9-123.1-6.8-228.2-5.6-321.2 3.6-124.7 11-236.1 39.5-334.4 64.7-53.1 13.6-103.3 26.4-151.7 35.7-76.6 14.9-139.2 15.5-191.4 1.6C442 56.1 393.4 19.8 355.3-38.6c-41.6-63.3-69.5-151.2-82.9-261.3-14.1-115.1-11.8-253.6 6.7-400.6l-1-.1c-18.5 147.1-20.8 285.7-6.7 400.8 13.4 110.2 41.3 198.3 83 261.7 38.3 58.6 87.1 95 149.2 111.5 25.2 6.7 52.8 10 83.2 10 32.8 0 68.9-3.9 108.7-11.6 48.4-9.3 98.6-22.1 151.8-35.7 98.3-25.1 209.6-53.6 334.2-64.6 93-9.2 198-10.4 321.1-3.6 14.5.7 29.3 1.6 44.3 2.5 5.8 1 11.6 2 17.5 3-22.5-1.1-44.5-2.1-66-2.8-120.9-4.5-224.1-1.5-315.6 9.3-121.2 13-230.3 42.8-326.6 69.1C802.1 63.8 751 77.8 701.5 88c-76.7 16.1-139.8 17.6-192.9 4.7C445.8 77.3 395.9 42 356-15.3c-43.4-62.2-73.3-148.8-88.9-257.6-16.4-113.6-16.6-250.5-.5-395.8l-1-.1c-16.1 145.4-15.9 282.4.5 396.1 15.6 108.9 45.6 195.7 89 258 40 57.5 90 93 153.1 108.3 23.8 5.8 49.6 8.7 77.7 8.7 34.8 0 73.2-4.5 115.7-13.4C751.2 78.7 802.3 64.8 856.4 50c96.2-26.3 205.3-56.1 326.4-69.1 91.4-10.8 194.6-13.8 315.4-9.3 24.1.8 48.9 1.9 74.2 3.2 6.5 1.1 13.1 2.3 19.7 3.4-33.8-1.2-66.4-2.2-98-2.8-118.7-2.4-220.1 2.4-310 14.7-117.6 14.8-219.7 44.5-318.5 73.1-55.1 16-107.1 31-157.7 42.2-76.7 17.2-140.3 19.6-194.4 7.5C449.6 98.5 398.4 64.1 357 7.8c-45.2-61.1-77.1-146.6-94.8-254.2-18.7-112.3-21.3-247.6-7.5-391.5l-1-.1c-13.8 144-11.2 279.4 7.5 391.8 17.8 107.7 49.7 193.3 95 254.6 41.6 56.6 92.9 91.1 157.1 105.5 22.5 5.1 46.7 7.6 72.8 7.6 36.7 0 77.1-5 122-15.1 50.7-11.2 102.7-26.2 157.8-42.2 98.8-28.6 200.9-58.2 318.4-73 89.8-12.3 191.2-17.1 309.8-14.6 33.9.5 68.9 1.7 105.2 3 7.1 1.3 14.4 2.6 21.6 3.9-45.6-1-89.1-1.9-130.8-1.9-116.5-.4-216.1 6-304.5 19.6-114 16.4-213.8 46.9-310.3 76.5-56.2 17.2-109.2 33.4-161.1 45.5-76.7 18.2-140.8 21.5-195.8 10C453.5 119.7 401 86.2 358 30.7c-22.8-29.3-42.9-65.1-59.6-106.3-17.2-42.6-31.1-91.3-41-144.8-20.9-111.1-25.9-245.1-14.4-387.7l-1-.1c-11.5 142.6-6.5 276.8 14.4 387.9 10 53.6 23.8 102.3 41.1 145 16.7 41.4 36.8 77.2 59.7 106.6 43.1 55.7 95.8 89.3 161 102.9 21.4 4.4 44.1 6.7 68.4 6.7 38.4 0 80.7-5.6 127.8-16.7 52-12.1 105-28.3 161.2-45.5 96.5-29.5 196.2-60 310.1-76.4 88.3-13.7 187.8-20.6 304.3-19.6h1.7c43.1 0 88.2.8 135.5 1.9 7.7 1.4 15.5 2.8 23.3 4.3-2.9 0-5.8-.1-8.7-.1-54.8-.4-106.6-.8-155.8 0-114.4 1.4-212.2 9.3-299 24.3-110.3 17.8-207.6 49.1-301.8 79.3-57.3 18.4-111.5 35.8-164.8 48.8-76.7 19.1-141.2 23.1-197.2 12.4-66-12.7-119.7-45.4-164.2-100.2-23.6-28.9-44.6-64.2-62.2-105.1-18.2-42.2-33.1-90.4-44.1-143.4-23.1-110-30.4-242.9-21.1-384.3l-1-.1c-9.3 141.5-2 274.5 21.1 384.6 11 53.1 25.9 101.4 44.1 143.6 17.7 40.9 38.7 76.4 62.4 105.3 22.8 28 48.7 50.8 77 67.6 26.5 15.8 56 26.8 87.8 32.9 20.3 3.9 41.8 5.9 64.6 5.9 40 0 84.1-6.1 133.1-18.2 53.3-13 107.5-30.4 164.8-48.8C979.7 63.1 1077 31.8 1187.2 14 1274-.9 1371.7-8.8 1486-10.2c49.2-.8 101-.4 155.8 0 4.8 0 9.6.1 14.4.1 8.3 1.5 16.6 3.1 24.9 4.6-15.9.2-31.6.3-47.1.4-53.5.4-104 .8-152 2.4-112.2 3.1-208.2 12.4-293.6 28.6-106.6 19-201.4 50.9-293.2 81.6-58.5 19.6-113.8 38.2-168.5 52.2-76.7 19.8-141.7 24.5-198.6 14.4-32.1-5.7-62-16.4-89.1-31.8-28.9-16.4-55.4-38.7-79-66.3-24.5-28.5-46.3-63.5-64.9-104-19.2-41.8-35-89.6-47.1-142.2-25.2-109.1-34.8-241-27.6-381.4l-1-.1c-7.2 140.5 2.4 272.5 27.6 381.7 12.1 52.7 27.9 100.6 47.2 142.4 18.6 40.6 40.5 75.6 65 104.2 23.6 27.7 50.3 50.1 79.2 66.6 27.1 15.4 57.2 26.2 89.4 31.9 19.4 3.5 39.8 5.2 61.2 5.2 41.5 0 87.1-6.5 137.8-19.7 54.8-14 110.1-32.5 168.6-52.2 91.7-30.8 186.5-62.6 293-81.6 85.3-16.1 181.3-25.5 293.4-28.6 48-1.5 98.5-1.9 151.9-2.4 17.2-.1 34.6-.3 52.2-.5 8.7 1.6 17.5 3.3 26.3 5-29.3.8-58 1.5-86.2 2.1-52.2 1.2-101.6 2.3-148.4 4.5-110 4.6-204.3 15.3-288.2 32.5-102.9 20-195.1 52.3-284.4 83.5-59.8 20.9-116.2 40.6-172.5 55.5-76.7 20.6-142.1 25.9-200 16.3-32.5-5.4-63-15.8-90.7-30.9-29.5-16.1-56.8-38.1-81.1-65.5-25.3-28.2-48-62.9-67.5-103-20.2-41.5-37-89-50.1-141.2-27.3-108.4-39.1-239.4-34-379h-1c-5.1 139.7 6.7 270.8 34.1 379.3 13.1 52.3 29.9 99.9 50.1 141.4 19.6 40.2 42.3 75 67.7 103.3 24.4 27.4 51.8 49.5 81.4 65.7 27.7 15.2 58.4 25.6 91 31 18.6 3.1 38 4.7 58.4 4.7 42.9 0 89.9-7 142-21 56.3-14.9 112.8-34.6 172.6-55.5 89.2-31.2 181.5-63.4 284.3-83.4 83.8-17.2 178.1-27.9 288-32.5 46.8-2.2 96.2-3.3 148.4-4.5 29.7-.7 59.8-1.3 90.8-2.2 9.1 1.7 18.4 3.5 27.6 5.2-43.5 2.1-85.1 3.6-125.9 5.1-51.1 1.9-99.4 3.6-145.2 6.4-107.9 6-200.4 17.8-282.8 36.1-99.2 20.9-188.8 53.3-275.5 84.8-61 22.1-118.7 43-176.5 58.8-76.7 21.2-142.5 27.1-201.3 17.9-33-5.2-64-15.3-92.3-30.2-30.2-15.9-58.2-37.7-83.3-64.7-26.1-28-49.7-62.4-70.1-102.3-21.1-41.2-38.9-88.4-53-140.4C209.2-229.7 195.3-360 198.3-499h-1c-3 139 10.9 269.5 40.4 377.4 14.1 52 31.9 99.3 53.1 140.6 20.5 40 44.1 74.5 70.3 102.5 25.2 27.2 53.3 49 83.5 64.9 28.4 14.9 59.5 25.1 92.6 30.3 18 2.8 36.6 4.2 56 4.2 44.2 0 92.3-7.3 145.7-22.1 57.8-15.7 115.5-36.6 176.6-58.8 86.7-31.4 176.3-63.9 275.4-84.7 82.4-18.2 174.9-30 282.7-36.1 45.8-2.8 94.1-4.5 145.2-6.4 42.1-1.5 85.1-3.1 130.1-5.3 1 .2 2 .4 3.1.6 8.5 1.6 17.1 3.2 25.7 4.9-58.5 4.1-113.2 6.8-166.4 9.4-50.1 2.5-97.3 4.8-142.2 8.1-105.7 7.3-196.5 20.1-277.5 39.3-95.5 21.5-182.5 54.1-266.6 85.6-62.3 23.3-121.2 45.4-180.6 62-76.7 21.8-143 28.1-202.7 19.2-33.4-5-65-14.9-93.9-29.6-30.8-15.7-59.6-37.3-85.4-64.2-26.9-27.8-51.3-62-72.7-101.7-22-41-40.9-88-55.9-139.7-31.4-107.3-47.5-237.2-46.5-375.6h-1c-1 138.5 15.1 268.5 46.6 375.9C248-46.5 266.8.6 288.9 41.6c21.4 39.8 45.9 74.1 72.9 101.9 25.9 27 54.8 48.6 85.7 64.4 29 14.7 60.6 24.7 94.2 29.7 17.5 2.6 35.5 3.9 54.2 3.9 45.3 0 94.5-7.7 148.9-23.1 59.5-16.6 118.3-38.7 180.7-62 84.1-31.5 171.1-64.1 266.5-85.6 81-19.1 171.7-32 277.4-39.3 44.8-3.3 92.1-5.6 142.1-8.1 54.4-2.7 110.3-5.4 170.3-9.7 9.9 1.9 19.9 3.8 29.9 5.6-74.6 7-142.3 11.1-207.8 15.1-49.1 3-95.5 5.8-139.4 9.6-103.6 8.4-192.6 22.2-272.2 42.1-91.8 22-176.1 54.5-257.6 86-63.6 24.5-123.6 47.7-184.7 65.1-164.4 47.7-291 24-387-72.6-27.7-27.6-53-61.7-75.3-101.3-23-40.9-42.8-87.7-58.8-139.3-33.5-107-51.7-236.6-52.6-374.7h-1c.9 138.2 19.1 267.9 52.7 374.9 16 51.6 35.8 98.6 58.9 139.5 22.3 39.6 47.7 73.8 75.4 101.5 64.1 64.7 142 96.8 235.7 96.8 46.7 0 97.3-8 152.1-23.9 61.1-17.4 121.2-40.6 184.8-65.2 81.5-31.5 165.8-64 257.5-85.9 79.6-19.9 168.6-33.7 272.1-42.1 43.9-3.8 90.3-6.6 139.4-9.6 65.7-4 133.7-8.2 208.7-15.2l-.1-.8c55.1 10.4 111.9 20.8 171.3 31v-1zM1774.8 5c-9.1-1.5-18.2-3.1-27.3-4.6 7.1-.2 14.3-.5 21.5-.8 9.2 1.4 18.5 2.8 27.8 4.1-7.3.4-14.7.9-22 1.3zm-143.9-24.3c5.4.2 10.9.4 16.4.7 7 1 14 2.1 21.1 3.1-5.7-.1-11.4-.3-17.1-.4-6.9-1.2-13.7-2.3-20.4-3.4zm160.6 6h-3.9c-1.5-.1-2.9-.2-4.4-.3 1.1 0 2.2.1 3.3.1 1.7.1 3.3.1 5 .2zm-54.2 7.1c-4.6-.7-9.3-1.4-13.9-2.1l-10.2-1.5c6.6 0 13.2 0 19.8.1 8.2 1.1 16.4 2.1 24.7 3.2-6.9.1-13.7.2-20.4.3zm27.1.5c8.7 1.1 17.5 2.3 26.4 3.4-7.3.3-14.5.6-21.6.9l-25.8-3.9c6.9-.1 13.9-.3 21-.4zm-173.6-22.4c2.5.3 4.9.6 7.4.9-1.9-.1-3.7-.3-5.6-.4-2.3-.3-4.5-.6-6.7-.9 1.6.2 3.2.3 4.9.4zm111.8 13.3c-6.2-.8-12.3-1.6-18.5-2.4 5.2.2 10.5.4 15.7.6 6.4.7 12.7 1.4 19.1 2.1-5.4 0-10.9-.1-16.3-.3zm-31.8-5c5.1.6 10.1 1.1 15.2 1.7-4.3-.2-8.7-.3-13-.5-4.9-.6-9.7-1.3-14.6-1.9 3 .2 6 .3 9 .5 1.3.1 2.3.1 3.4.2zm42.8 3.8c4.7.2 9.4.4 14.2.5 5.7.5 11.3 1 17 1.6-5-.1-9.9-.2-14.8-.3-5.6-.6-11-1.2-16.4-1.8zm-13.7-1.6c-.4 0-.8-.1-1.2-.1-3.2-.4-6.3-.7-9.4-1.1 3 .2 6 .3 8.9.5 3.8.4 7.5.7 11.3 1.1-3.2-.1-6.4-.2-9.6-.4zm-47.7-4.3c-2.5-.1-5.1-.3-7.6-.4-2.9-.4-5.8-.7-8.7-1.1 2.3.2 4.6.3 6.9.5 3.2.3 6.3.7 9.4 1zm-35.1-2.9c4.4.6 8.9 1.1 13.4 1.7-3.7-.2-7.4-.4-11-.6-4.2-.6-8.5-1.2-12.7-1.8 3.4.2 6.8.5 10.3.7zm27.4 3.5c5.8.7 11.5 1.5 17.4 2.2-1.1 0-2.2-.1-3.3-.1-3.7-.1-7.5-.3-11.2-.4-5.6-.8-11.2-1.6-16.7-2.4 4.6.2 9.2.4 13.8.7zm14 3.1c4.8.2 9.6.4 14.5.6 6.7.9 13.5 1.8 20.3 2.7-5.7-.1-11.3-.3-17-.4-6.6-1-13.2-2-19.7-2.9h1.9zm44 4.4c2.6.3 5.3.7 8 1 4.9.6 9.8 1.3 14.8 1.9-6.3 0-12.6 0-18.9-.1-7.4-1.1-14.8-2.2-22.1-3.3 6 .3 12.1.4 18.2.5zm38.3 4h20c8 .9 16.1 1.8 24.2 2.6-6.9.2-13.8.3-20.6.4-7.9-.9-15.8-1.9-23.6-3zm-7.7-1c-7.1-.9-14.3-1.9-21.4-2.8 6 .1 12.1.2 18.1.4 7.3.8 14.6 1.6 22 2.4h-18.7zm7.6-2.2c5.8.1 11.6.2 17.5.3 6.9.6 13.8 1.2 20.8 1.9-6.1 0-12.1.1-18.1.1-6.8-.8-13.6-1.6-20.2-2.3zm30.8.5c5.3.1 10.6.1 16 .2 6.2.4 12.5.8 18.7 1.3-5.6.1-11.1.1-16.7.1-6-.5-12-1.1-18-1.6zm-13.3-1.2c-4.2-.4-8.4-.8-12.5-1.1 3.6.1 7.3.3 10.9.4l13.2.9c-3.9-.1-7.7-.2-11.6-.2zm-28.6-2.7c-.6 0-1.2 0-1.8-.1-.8-.1-1.6-.1-2.3-.2.4 0 .8 0 1.2.1.9 0 1.9.1 2.9.2zm-187.4-17c1.8.2 3.7.5 5.5.7l-3.6-.3c-1.6-.2-3.2-.5-4.8-.7 1 .2 1.9.2 2.9.3zm24.6 3.3c3.8.5 7.6 1 11.4 1.6l-9-.6c-3.6-.6-7.2-1.1-10.8-1.7 2.7.2 5.5.5 8.4.7zm25.7 3.6c5.2.7 10.3 1.5 15.6 2.2-4.2-.2-8.4-.5-12.6-.7-5-.8-9.9-1.6-14.8-2.3 3.8.2 7.8.5 11.8.8zm26.8 3.8l18.6 2.7c-5.1-.2-10.1-.4-15.1-.6-6-1-12-1.9-17.9-2.9 4.8.3 9.6.5 14.4.8zm57 8.4c7.7 1.1 15.4 2.3 23.1 3.5-6.2 0-12.5-.1-18.6-.1-7.5-1.3-15-2.5-22.5-3.8 5.9.1 11.9.2 18 .4zm30 4.4c5.6.8 11.3 1.7 17 2.6 2.6.4 5.3.8 7.9 1.2l-20 .3c-8.2-1.4-16.3-2.8-24.3-4.1h19.4zm30.9 4.7c8.8 1.3 17.6 2.6 26.4 4-7.1.3-14.1.5-21.1.7-1.8-.3-3.6-.6-5.3-.9-6.9-1.2-13.7-2.3-20.6-3.5l20.6-.3zm87.3 7.2c-7.6.5-15.2 1-22.7 1.4-9.1-1.3-18.2-2.7-27.3-4 7.3-.3 14.7-.6 22.2-.9 9.1 1.1 18.4 2.3 27.8 3.5zm-5.8-5.6c-7.4.4-14.8.7-22 1-8.6-1.1-17.1-2.2-25.5-3.3 7.1-.2 14.3-.3 21.5-.5 8.5 1 17.2 1.9 26 2.8zm-26.1-3.7c-7.7-.8-15.3-1.7-22.9-2.5 6.6 0 13.2-.1 19.9-.1 7.8.7 15.6 1.4 23.5 2-6.9.2-13.7.4-20.5.6zm49.1-1.5c-6.7.2-13.3.5-19.9.7-7.3-.6-14.6-1.2-21.8-1.9 6.4-.1 12.8-.1 19.3-.2 7.4.5 14.9.9 22.4 1.4zm-22.4-2.4l-14.4-.9c4.3 0 8.6.1 12.9.1l15 .6c-4.5.1-9 .1-13.5.2zm30.8-.5c-2.2-.1-4.3-.2-6.4-.3h5.4c2.3 0 4.6.1 7 .1-2 .1-4 .2-6 .2zm-352.3-26.9c.3 0 .6.1.9.1 1.2.2 2.3.3 3.4.5-.5 0-1.1-.1-1.6-.1-.9-.2-1.8-.4-2.7-.5zm16.9 2.7c2 .2 4 .4 5.9.5 2.7.4 5.5.8 8.2 1.2.3 0 .5.1.8.1-2.2-.2-4.4-.3-6.6-.5-2.8-.4-5.6-.8-8.3-1.3zm20.8 3.4c-.5-.1-1-.2-1.5-.2 3.3.3 6.6.5 9.9.8 4.5.7 9.1 1.4 13.6 2-3.6-.2-7.1-.5-10.6-.7-3.8-.6-7.6-1.2-11.4-1.9zm20.9 3.5c4.2.3 8.4.5 12.6.8 5.6.9 11.1 1.7 16.8 2.6-4.4-.2-8.8-.5-13.2-.7-5.4-.8-10.8-1.8-16.2-2.7zm24.3 4.2c4.8.2 9.7.5 14.6.8 6.4 1 12.8 2 19.3 3.1-5.1-.2-10.2-.4-15.2-.6-6.3-1.1-12.5-2.2-18.7-3.3zm25.8 4.6l16.2.6c7.1 1.2 14.3 2.3 21.5 3.5-5.6-.1-11.3-.3-16.9-.4-7-1.3-13.9-2.5-20.8-3.7zm27.1 4.9c5.4.1 10.9.3 16.4.4h1.2c7.7 1.3 15.5 2.6 23.3 3.9-6.1 0-12.2-.1-18.2-.1-7.6-1.5-15.2-2.9-22.7-4.2zm28.3 5.2c6.2 0 12.5.1 18.8.1 8.3 1.4 16.6 2.8 25 4.2-6.5.1-13 .1-19.4.2-8.2-1.5-16.4-3-24.4-4.5zm29.4 5.5c6.6-.1 13.2-.1 19.9-.2 8.6 1.5 17.2 2.9 25.9 4.4.2 0 .3.1.5.1l-20.4.6c-8.7-1.7-17.3-3.3-25.9-4.9zm30.5 5.7c6.9-.2 13.8-.4 20.8-.6 9.2 1.6 18.5 3.1 27.8 4.7-7.1.4-14.2.8-21.3 1.1-9.2-1.7-18.3-3.5-27.3-5.2zm31.4 6c7.2-.4 14.4-.7 21.6-1.1 9.6 1.6 19.3 3.3 29 4.9-7.4.6-14.8 1.1-22.1 1.6-9.6-1.8-19.1-3.6-28.5-5.4z"/></svg>